<svg width="128" height="128" viewBox="0 0 128 128" fill="none" xmlns="http://www.w3.org/2000/svg">
<g clip-path="url(#clip0)">
<path d="M71.7003 54.7297L72.0538 55.0833C79.8643 62.8937 79.8643 75.557 72.0538 83.3675L49.4264 105.995C41.6159 113.805 28.9526 113.805 21.1421 105.995V105.995V105.995C13.3316 98.1845 13.3317 85.5212 21.1421 77.7107L32.4558 66.397" stroke="white" stroke-width="13" stroke-linecap="round"/>
<path d="M55.4368 72.4074L55.0833 72.0538C47.2728 64.2433 47.2728 51.58 55.0833 43.7696L77.7107 21.1421C85.5212 13.3317 98.1845 13.3316 105.995 21.1421V21.1421V21.1421C113.805 28.9526 113.805 41.6159 105.995 49.4264L94.6812 60.7401" stroke="white" stroke-width="13" stroke-linecap="round"/>
</g>
<defs>
<clipPath id="clip0">
<rect width="128" height="128" fill="white"/>
</clipPath>
</defs>
</svg>
